<?xml version="1.0" encoding="utf-8"?>
<!-- Generator: Adobe Illustrator 26.5.0, SVG Export Plug-In . SVG Version: 6.00 Build 0)  -->
<svg version="1.1" id="_Слой_2" xmlns="http://www.w3.org/2000/svg" xmlns:xlink="http://www.w3.org/1999/xlink" x="0px"
	 y="0px" viewBox="0 0 416.7 176.7" style="enable-background:new 0 0 416.7 176.7;" xml:space="preserve">
<g id="_Слой_2-2">
	<g>
		<g>
			<path d="M155.9,170.7c-45.4,0-82.3-36.9-82.3-82.3S110.5,6,155.9,6c37.2,0,68.8,24.8,78.9,58.8c1.9-0.5,3.9-0.8,6-0.8
				c-10.6-36.9-44.7-64-84.9-64c-48.7,0-88.3,39.6-88.3,88.3s39.6,88.3,88.3,88.3c40.2,0,74.3-27,84.9-63.9c-2.1,0-4.1-0.3-6-0.8
				C224.6,145.9,193.1,170.7,155.9,170.7L155.9,170.7z"/>
			<path d="M240.9,64c0,0-0.1,0-0.1,0c0.7,2.3,1.2,4.7,1.7,7.1c8.9,0.8,15.8,8.3,15.8,17.3s-7,16.5-15.8,17.3
				c-0.5,2.4-1.1,4.8-1.7,7.1c0.1,0,0.1,0,0.2,0c13.4,0,24.4-10.9,24.4-24.4S254.4,64,240.9,64L240.9,64z"/>
			<path d="M223.6,88.4c0-8.1,5.5-14.8,13-16.8c-0.5-2.3-1.1-4.6-1.7-6.8c-10.5,2.7-18.2,12.3-18.2,23.6s7.7,20.8,18.2,23.6
				c0.7-2.2,1.3-4.5,1.7-6.8C229.1,103.2,223.6,96.5,223.6,88.4z"/>
			<path d="M240.9,105.8c-1.5,0-3-0.2-4.5-0.6c-0.5,2.3-1.1,4.6-1.7,6.8c1.9,0.5,3.9,0.8,6,0.8c0.7-2.3,1.2-4.7,1.7-7.1
				C242,105.8,241.5,105.8,240.9,105.8L240.9,105.8z"/>
			<path d="M236.5,71.6c1.4-0.4,2.9-0.6,4.4-0.6c0.5,0,1.1,0,1.6,0.1c-0.5-2.4-1-4.8-1.7-7.1c-2.1,0-4.1,0.3-6,0.8
				C235.5,67.1,236,69.3,236.5,71.6L236.5,71.6z"/>
		</g>
		<path d="M40.9,113.6c-2.6,1.3-7.7,2.6-14.2,2.6C11.4,116.1,0,106.5,0,88.9s11.4-28.3,28.2-28.3c6.7,0,11,1.4,12.8,2.4l-1.7,5.7
			c-2.6-1.3-6.4-2.2-10.9-2.2c-12.6,0-21,8.1-21,22.2c0,13.2,7.6,21.7,20.7,21.7c4.2,0,8.6-0.9,11.4-2.2
			C39.4,108.1,40.9,113.6,40.9,113.6z"/>
		<path d="M109.4,106.9c3.1,1.9,7.7,3.5,12.5,3.5c7.1,0,11.3-3.8,11.3-9.2c0-5-2.9-7.9-10.2-10.7c-8.8-3.1-14.2-7.7-14.2-15.3
			c0-8.4,7-14.6,17.4-14.6c5.5,0,9.5,1.3,11.9,2.6l-1.9,5.7c-1.8-1-5.4-2.6-10.2-2.6c-7.4,0-10.2,4.4-10.2,8.1
			c0,5,3.3,7.5,10.7,10.4c9.1,3.5,13.8,7.9,13.8,15.8c0,8.3-6.2,15.5-18.9,15.5c-5.2,0-10.9-1.5-13.8-3.4
			C107.7,112.7,109.4,106.9,109.4,106.9z"/>
		<path d="M195.3,91.7c-0.4-7.5-0.9-16.6-0.8-23.3h-0.2c-1.8,6.3-4.1,13-6.8,20.5l-9.5,26.2h-5.3l-8.7-25.7
			c-2.6-7.6-4.7-14.6-6.2-21h-0.2c-0.2,6.7-0.6,15.8-1,23.8l-1.4,23.1h-6.6l3.8-53.9h8.9l9.2,26.1c2.2,6.6,4.1,12.6,5.4,18.2h0.2
			c1.4-5.4,3.3-11.4,5.7-18.2l9.6-26.1h8.9l3.4,53.9h-6.8L195.3,91.7L195.3,91.7z"/>
		<path d="M284.5,115.3l-13.7-53.9h7.4l6.4,27.3c1.6,6.7,3,13.4,4,18.6h0.2c0.9-5.4,2.6-11.8,4.4-18.7l7.2-27.2h7.3l6.6,27.4
			c1.5,6.4,3,12.8,3.8,18.5h0.2c1.1-5.9,2.6-11.9,4.3-18.6l7.1-27.2h7.1l-15.3,53.9h-7.3l-6.8-28.1c-1.7-6.9-2.8-12.2-3.5-17.6h-0.2
			c-1,5.4-2.2,10.6-4.2,17.6l-7.7,28.1L284.5,115.3L284.5,115.3z"/>
		<path d="M371.3,90h-21v19.4h23.4v5.8h-30.3V61.3h29.1v5.8h-22.2v17h21C371.3,84.2,371.3,90,371.3,90z"/>
		<path d="M382.7,62.1c3-0.6,7.8-1.1,12.7-1.1c7,0,11.4,1.2,14.8,3.9c2.8,2.1,4.5,5.3,4.5,9.5c0,5.2-3.4,9.8-9.1,11.8v0.2
			c5.1,1.3,11.1,5.5,11.1,13.5c0,4.6-1.8,8.2-4.6,10.8c-3.8,3.4-9.8,5-18.6,5c-4.8,0-8.5-0.3-10.8-0.6V62.1z M389.7,84.2h6.3
			c7.4,0,11.7-3.8,11.7-9c0-6.3-4.8-8.8-11.8-8.8c-3.2,0-5,0.2-6.2,0.5V84.2z M389.7,110c1.4,0.2,3.4,0.3,5.8,0.3
			c7.2,0,13.8-2.6,13.8-10.5c0-7.4-6.3-10.4-13.9-10.4h-5.8L389.7,110L389.7,110z"/>
		<circle cx="73.5" cy="88.4" r="32.5"/>
	</g>
</g>
</svg>
