<?xml version="1.0" encoding="UTF-8"?>
<svg id="_Слой_2" data-name="Слой 2" xmlns="http://www.w3.org/2000/svg" viewBox="0 0 416.74 176.7">
  <defs>
    <style>
      .cls-1 {
        fill: #fff;
      }
    </style>
  </defs>
  <g id="_Слой_2-2" data-name="Слой 2">
    <g>
      <path class="cls-1" d="M40.88,113.59c-2.56,1.28-7.68,2.56-14.24,2.56-15.2,0-26.64-9.6-26.64-27.28s11.44-28.32,28.16-28.32c6.72,0,10.96,1.44,12.8,2.4l-1.68,5.68c-2.64-1.28-6.4-2.24-10.88-2.24-12.64,0-21.04,8.08-21.04,22.24,0,13.2,7.6,21.68,20.72,21.68,4.24,0,8.56-.88,11.36-2.24l1.44,5.52Z"/>
      <path class="cls-1" d="M109.44,106.87c3.12,1.92,7.68,3.52,12.48,3.52,7.12,0,11.28-3.76,11.28-9.2,0-5.04-2.88-7.92-10.16-10.72-8.8-3.12-14.24-7.68-14.24-15.28,0-8.4,6.96-14.64,17.44-14.64,5.52,0,9.52,1.28,11.92,2.64l-1.92,5.68c-1.76-.96-5.36-2.56-10.24-2.56-7.36,0-10.16,4.4-10.16,8.08,0,5.04,3.28,7.52,10.72,10.4,9.12,3.52,13.76,7.92,13.76,15.84,0,8.32-6.16,15.52-18.88,15.52-5.2,0-10.88-1.52-13.76-3.44l1.76-5.84Z"/>
      <path class="cls-1" d="M195.28,91.67c-.4-7.52-.88-16.56-.8-23.28h-.24c-1.84,6.32-4.08,13.04-6.8,20.48l-9.52,26.16h-5.28l-8.72-25.68c-2.56-7.6-4.72-14.56-6.24-20.96h-.16c-.16,6.72-.56,15.76-1.04,23.84l-1.44,23.12h-6.64l3.76-53.92h8.88l9.2,26.08c2.24,6.64,4.08,12.56,5.44,18.16h.24c1.36-5.44,3.28-11.36,5.68-18.16l9.6-26.08h8.88l3.36,53.92h-6.8l-1.36-23.68Z"/>
      <path class="cls-1" d="M284.5,115.27l-13.68-53.92h7.36l6.4,27.28c1.6,6.72,3.04,13.44,4,18.64h.16c.88-5.36,2.56-11.76,4.4-18.72l7.2-27.2h7.28l6.56,27.36c1.52,6.4,2.96,12.8,3.76,18.48h.16c1.12-5.92,2.64-11.92,4.32-18.64l7.12-27.2h7.12l-15.28,53.92h-7.28l-6.8-28.08c-1.68-6.88-2.8-12.16-3.52-17.6h-.16c-.96,5.36-2.16,10.64-4.16,17.6l-7.68,28.08h-7.28Z"/>
      <path class="cls-1" d="M371.3,89.99h-20.96v19.44h23.36v5.84h-30.32V61.35h29.12v5.84h-22.16v17.04h20.96v5.76Z"/>
      <path class="cls-1" d="M382.74,62.07c3.04-.64,7.84-1.12,12.72-1.12,6.96,0,11.44,1.2,14.8,3.92,2.8,2.08,4.48,5.28,4.48,9.52,0,5.2-3.44,9.76-9.12,11.84v.16c5.12,1.28,11.12,5.52,11.12,13.52,0,4.64-1.84,8.16-4.56,10.8-3.76,3.44-9.84,5.04-18.64,5.04-4.8,0-8.48-.32-10.8-.64V62.07Zm6.96,22.08h6.32c7.36,0,11.68-3.84,11.68-9.04,0-6.32-4.8-8.8-11.84-8.8-3.2,0-5.04,.24-6.16,.48v17.36Zm0,25.84c1.36,.24,3.36,.32,5.84,.32,7.2,0,13.84-2.64,13.84-10.48,0-7.36-6.32-10.4-13.92-10.4h-5.76v20.56Z"/>
      <circle class="cls-1" cx="73.5" cy="88.39" r="32.53"/>
      <g>
        <path class="cls-1" d="M155.89,170.7c-45.41,0-82.35-36.94-82.35-82.35S110.48,6,155.89,6c37.23,0,68.76,24.84,78.91,58.82,1.93-.5,3.95-.78,6.04-.79C230.25,27.1,196.18,0,155.89,0c-48.72,0-88.35,39.63-88.35,88.35s39.63,88.35,88.35,88.35c40.23,0,74.26-27.03,84.9-63.87-2.08-.01-4.1-.29-6.03-.8-10.2,33.9-41.69,58.67-78.86,58.67Z"/>
        <path class="cls-1" d="M240.95,64.03s-.08,0-.12,0c.67,2.32,1.23,4.68,1.71,7.08,8.85,.81,15.81,8.26,15.81,17.32s-6.97,16.53-15.84,17.32c-.48,2.39-1.06,4.75-1.73,7.07,.06,0,.11,0,.17,0,13.45,0,24.4-10.95,24.4-24.4s-10.95-24.4-24.4-24.4Z"/>
        <path class="cls-1" d="M223.56,88.43c0-8.06,5.52-14.84,12.97-16.81-.48-2.31-1.07-4.57-1.73-6.8-10.48,2.74-18.24,12.28-18.24,23.61s7.74,20.85,18.2,23.6c.67-2.23,1.26-4.5,1.74-6.8-7.44-1.98-12.94-8.75-12.94-16.8Z"/>
        <path class="cls-1" d="M240.95,105.83c-1.54,0-3.03-.22-4.46-.6-.48,2.3-1.07,4.57-1.74,6.8,1.93,.51,3.95,.78,6.03,.8,.67-2.32,1.25-4.68,1.73-7.07-.52,.05-1.03,.08-1.56,.08Z"/>
        <path class="cls-1" d="M236.53,71.62c1.42-.37,2.89-.59,4.42-.59,.54,0,1.07,.03,1.59,.08-.48-2.39-1.04-4.76-1.71-7.08-2.08,0-4.11,.28-6.04,.79,.67,2.23,1.25,4.5,1.73,6.8Z"/>
      </g>
    </g>
  </g>
</svg>